Coordinates
version=1
nRows=13
nColumns=36
inDegrees=yes

Units are S.I. units (second, meters, Newtons, ...)
If the header above contains a line with 'inDegrees', this indicates whether rotational values are in degrees (yes) or radians (no).

endheader
time	pelvis_tilt	pelvis_list	pelvis_rotation	pelvis_tx	pelvis_ty	pelvis_tz	hip_flexion_r	hip_adduction_r	hip_rotation_r	knee_angle_r	knee_angle_r_beta	ankle_angle_r	subtalar_angle_r	mtp_angle_r	hip_flexion_l	hip_adduction_l	hip_rotation_l	knee_angle_l	knee_angle_l_beta	ankle_angle_l	subtalar_angle_l	mtp_angle_l	lumbar_extension	lumbar_bending	lumbar_rotation	arm_flex_r	arm_add_r	arm_rot_r	elbow_flex_r	pro_sup_r	arm_flex_l	arm_add_l	arm_rot_l	elbow_flex_l	pro_sup_l
      0.00000000	      4.97256515	     10.37936810	      2.49177472	      0.43513714	      0.98048924	      0.23604857	     -3.35200073	      0.76755493	      6.27505853	     12.95829998	      0.22616500	     15.46715045	     -8.93742350	     -6.52374082	     41.16063916	     -2.04477136	      1.64004110	     11.09734528	      0.19368521	     -2.46507290	    -15.90974645	     -6.52374082	    -16.26293661	     -3.81070027	     -2.83996908	     38.67919782	      9.93632302	     60.02557820	    118.34423142	    108.56023566	     33.13218269	      5.91735316	     69.24729402	    131.91119535	    107.10443420
      0.01666670	      4.81552204	     11.28802663	      2.69339690	      0.43453960	      0.97300055	      0.23330825	     -2.69608649	     -2.03564633	      5.51848638	     12.07497432	      0.21074806	     14.15474861	     -6.97205291	     -6.56753063	     40.59839327	     -1.69134297	     -7.65175506	      5.98730099	      0.10449812	      0.77120262	     -3.96072370	     -6.56753063	    -15.90916500	     -6.64059655	     -1.04247436	     39.33003417	      7.34235250	     58.29262058	    125.11125036	    107.67323526	     36.93049971	      8.21939510	     72.26165254	    131.67975041	    106.99473226
      0.03333330	      4.14789330	     11.15645774	      4.31913827	      0.43353543	      0.97515535	      0.23288436	     -1.25538395	     -1.38951717	      3.73008726	     13.31020459	      0.23230689	     14.32342901	     -7.80208248	     -6.68155911	     40.43389120	     -0.52275603	     -6.49497585	      4.39364602	      0.07668359	     -1.58480821	     -5.66842848	     -6.68155911	    -15.90574113	     -6.77990578	     -1.03637258	     37.96606100	      6.70817063	     59.05616027	    126.77836827	    107.71936813	     37.70931190	      8.43506234	     74.14617696	    132.33098199	    106.44393474
      0.05000000	      4.08720779	     11.44212208	      4.94156349	      0.43326599	      0.97370038	      0.23313406	     -1.01270396	     -1.61711602	      1.85060478	     14.30962957	      0.24975015	     15.22464182	     -5.98905826	     -6.76889466	     40.62397383	     -0.06843562	     -7.08548333	      5.31961140	      0.09284473	     -2.15075528	     -5.18916335	     -6.76889466	    -16.01963448	     -7.17582776	     -0.81590507	     37.30408725	      6.56600295	     59.86845665	    127.33135429	    105.36654706	     38.58998108	      8.88136662	     74.91847396	    132.56510371	    103.80092695
      0.06666670	      3.82195526	     11.70426341	      5.60336343	      0.43236463	      0.97482369	      0.23305988	     -0.26502802	     -1.97937359	      0.35073303	     15.07794539	      0.26315979	     15.81582380	     -4.68454056	     -6.84824692	     41.12463560	      0.63968387	     -6.72844943	      6.06567928	      0.10586607	     -2.88252559	     -6.50637031	     -6.84824692	    -16.10268219	     -7.29985482	     -0.89579324	     36.54110489	      6.61134480	     60.76251408	    127.21956509	    103.83529971	     39.02668000	      9.07221348	     75.86432643	    132.38532233	    101.77629677
      0.08333330	      3.74510254	     12.08519494	      5.87816050	      0.43594934	      0.97447239	      0.23025106	     -0.44367499	     -2.69567942	     -0.78303604	     15.28390969	      0.26675455	     16.14412134	     -3.55158737	     -7.03439810	     41.16525099	      1.38272776	     -6.94979842	      6.49794894	      0.11341060	     -2.84615255	     -6.64008708	     -7.03439810	    -15.77526202	     -7.51538400	     -0.94029443	     35.85067871	      6.54152923	     61.31382889	    126.98165338	     98.96863431	     39.10651736	      9.32170840	     76.45338022	    132.11564168	     96.61841026
      0.10000000	      3.39307329	     12.13435104	      6.35428274	      0.43566091	      0.97465901	      0.22981578	     -0.46668100	     -2.96052270	     -1.48328224	     14.88059500	      0.25971538	     16.27231531	     -2.76171662	     -7.07472962	     41.55280143	      1.80956743	     -6.64314918	      6.86038593	      0.11973632	     -3.16687732	     -7.15439581	     -7.07472962	    -15.11424301	     -7.37090134	     -1.21189333	     35.25183183	      6.60579918	     61.39466386	    126.83412924	     98.11232682	     38.81348486	      9.56197038	     76.65708668	    131.85819881	     95.41134790
      0.11666670	      3.36241061	     12.16021990	      6.30018770	      0.43247198	      0.97703088	      0.23327241	     -0.31759761	     -3.06791213	     -1.74672379	     14.91374670	      0.26029398	     15.77920834	     -2.59553236	     -7.07593320	     41.52552223	      1.81386070	     -6.64939000	      6.82134401	      0.11905491	     -3.39731039	     -7.10181986	     -7.07593320	    -15.03488839	     -7.47346738	     -1.07406187	     35.21097196	      6.66350758	     61.39593298	    126.67955247	     98.12923544	     38.81424251	      9.60232350	     76.66186187	    131.78684487	     95.40552542
      0.13333330	      3.55753870	     11.89932722	      5.96124428	      0.43255023	      0.97747113	      0.23308228	     -0.41756230	     -2.98057132	     -2.67304095	     15.31267231	      0.26725655	     15.44410265	     -3.31962968	     -7.12424100	     41.01239328	      1.46515104	     -6.65039660	      6.07034457	      0.10594750	     -3.74809726	     -7.38663603	     -7.12424100	    -15.14763786	     -7.14794773	     -0.82986861	     35.28908040	      6.68435158	     61.40485529	    126.12081415	     96.74162281	     38.78957828	      9.79755308	     77.02360150	    131.27772764	     93.71816355
      0.15000000	      3.44344558	     11.68344193	      5.92602377	      0.43328822	      0.97735755	      0.23297387	     -0.39749980	     -2.80325907	     -3.13389629	     15.16182614	      0.26462379	     15.04555415	     -3.92154185	     -7.15427978	     41.31311692	      1.17778029	     -6.52104575	      6.27910204	      0.10959100	     -3.68456176	     -7.61521081	     -7.15427978	    -15.00006815	     -6.95019538	     -0.83842129	     35.22728584	      6.83218456	     61.40066413	    125.97214033	     95.57729045	     38.53441398	      9.69157986	     77.09523847	    131.22926224	     92.37354727
      0.16666670	      3.69192335	     11.53936820	      5.86190447	      0.43297774	      0.97749499	      0.23280457	     -0.73753117	     -2.66616552	     -3.77316858	     14.95658689	      0.26104169	     14.43050905	     -4.95375279	     -7.19052780	     41.08278939	      1.01744375	     -6.32378839	      5.98844632	      0.10451811	     -3.61006323	     -7.68483791	     -7.19052780	    -15.29346531	     -6.73747850	     -0.88547660	     35.56145970	      6.86505125	     61.13530045	    125.75901715	     94.31681077	     38.68230792	      9.77061509	     77.19147053	    131.14839563	     90.91904677
      0.18333330	      3.63346363	     11.48099162	      6.05186022	      0.43306697	      0.97512972	      0.23271505	     -0.39464882	     -2.61582170	     -4.48442123	     15.26775664	      0.26647262	     13.91161059	     -5.61283312	     -7.29798170	     41.01135729	      1.07037502	     -6.07617262	      5.42309825	      0.09465092	     -3.49729289	     -7.37141697	     -7.29798170	    -15.24995339	     -6.69184713	     -0.96485090	     35.70758214	      6.97599900	     60.59403872	    125.75309122	     96.73224961	     38.75124802	      9.87849937	     77.26005096	    131.07695256	     91.35169641
      0.20000000	      3.58410164	     11.93554724	      6.33804959	      0.43796148	      0.97721400	      0.23484994	     -0.32828128	     -2.90184168	     -4.63987206	     15.49373129	      0.27041662	     13.47755144	     -5.18521394	     -7.29896663	     41.08306090	      1.45625098	     -6.06038475	      5.85734546	      0.10222996	     -3.23518458	     -7.56015002	     -7.29896663	    -15.11888395	     -7.37330303	     -1.02765679	     35.51854376	      7.26193697	     60.58145837	    125.76579465	     96.73197636	     38.66407171	      9.80314526	     77.33973173	    131.19962455	     91.33527771
